<mxfile host="65bd71144e" modified="2021-01-22T02:27:08.702Z" agent="5.0 (Windows NT 10.0; Win64; x64) AppleWebKit/537.36 (KHTML, like Gecko) Code/1.52.1 Chrome/83.0.4103.122 Electron/9.3.5 Safari/537.36" etag="O4MMRvaHWODVzy9iUPsB" version="13.10.0" type="embed">
    <diagram id="Iqn02m987E_1Y6RsaODK" name="CICD">
        <mxGraphModel dx="1027" dy="483" grid="1" gridSize="10" guides="1" tooltips="1" connect="1" arrows="1" fold="1" page="1" pageScale="1" pageWidth="827" pageHeight="1169" background="none" math="0" shadow="1">
            <root>
                <mxCell id="TXsu97STiCOG9BQ06nFb-0"/>
                <mxCell id="TXsu97STiCOG9BQ06nFb-1" parent="TXsu97STiCOG9BQ06nFb-0"/>
                <mxCell id="jmu_tiYD6_GEUumzkb44-0" value="" style="rounded=0;whiteSpace=wrap;html=1;strokeColor=#D86613;fillColor=none;" parent="TXsu97STiCOG9BQ06nFb-1" vertex="1">
                    <mxGeometry x="488.44000000000005" y="116.44" width="190" height="180" as="geometry"/>
                </mxCell>
                <mxCell id="jmu_tiYD6_GEUumzkb44-1" value="" style="outlineConnect=0;fontColor=#232F3E;gradientColor=#F78E04;gradientDirection=north;fillColor=#D05C17;strokeColor=#ffffff;dashed=0;verticalLabelPosition=bottom;verticalAlign=top;align=center;html=1;fontSize=12;fontStyle=0;aspect=fixed;shape=mxgraph.aws4.resourceIcon;resIcon=mxgraph.aws4.ecs;" parent="TXsu97STiCOG9BQ06nFb-1" vertex="1">
                    <mxGeometry x="488.44000000000005" y="116.44" width="24" height="24" as="geometry"/>
                </mxCell>
                <mxCell id="euKfv0HWNEc7ueXWT4n4-0" value="" style="rounded=0;whiteSpace=wrap;html=1;strokeColor=#D86613;fillColor=none;" parent="TXsu97STiCOG9BQ06nFb-1" vertex="1">
                    <mxGeometry x="96.72" y="116.44" width="80" height="180" as="geometry"/>
                </mxCell>
                <mxCell id="euKfv0HWNEc7ueXWT4n4-4" style="edgeStyle=orthogonalEdgeStyle;rounded=0;orthogonalLoop=1;jettySize=auto;html=1;startArrow=none;startFill=0;endArrow=classic;endFill=1;dashed=1;" parent="TXsu97STiCOG9BQ06nFb-1" source="mHzoulwclUu3AxQmjZOi-1" target="4" edge="1">
                    <mxGeometry relative="1" as="geometry">
                        <Array as="points">
                            <mxPoint x="435" y="116"/>
                        </Array>
                        <mxPoint x="413" y="116.37931034482762" as="sourcePoint"/>
                    </mxGeometry>
                </mxCell>
                <mxCell id="mHzoulwclUu3AxQmjZOi-1" value="" style="outlineConnect=0;fontColor=#232F3E;gradientColor=#F78E04;gradientDirection=north;fillColor=#D05C17;strokeColor=#ffffff;dashed=0;verticalLabelPosition=bottom;verticalAlign=top;align=center;html=1;fontSize=12;fontStyle=0;aspect=fixed;shape=mxgraph.aws4.resourceIcon;resIcon=mxgraph.aws4.ecr;" parent="TXsu97STiCOG9BQ06nFb-1" vertex="1">
                    <mxGeometry x="343.28" y="92.44" width="48" height="48" as="geometry"/>
                </mxCell>
                <mxCell id="CHHyB4FnQIO_N6Z5i6d3-7" style="edgeStyle=orthogonalEdgeStyle;rounded=0;orthogonalLoop=1;jettySize=auto;html=1;endArrow=classic;endFill=1;" parent="TXsu97STiCOG9BQ06nFb-1" source="OyFzKP3GuWBrdCjnjOIb-18" edge="1">
                    <mxGeometry relative="1" as="geometry">
                        <Array as="points">
                            <mxPoint x="186.72" y="242.44"/>
                            <mxPoint x="186.72" y="206.44"/>
                        </Array>
                        <mxPoint x="206.72" y="206.39999999999998" as="targetPoint"/>
                    </mxGeometry>
                </mxCell>
                <mxCell id="OyFzKP3GuWBrdCjnjOIb-18" value="ecs" style="outlineConnect=0;fontColor=#232F3E;gradientColor=none;fillColor=#232F3E;strokeColor=none;dashed=0;verticalLabelPosition=bottom;verticalAlign=top;align=center;html=1;fontSize=12;fontStyle=0;aspect=fixed;pointerEvents=1;shape=mxgraph.aws4.generic_database;" parent="TXsu97STiCOG9BQ06nFb-1" vertex="1">
                    <mxGeometry x="121" y="223.21999999999994" width="31.44" height="41.56" as="geometry"/>
                </mxCell>
                <mxCell id="CHHyB4FnQIO_N6Z5i6d3-6" style="edgeStyle=orthogonalEdgeStyle;rounded=0;orthogonalLoop=1;jettySize=auto;html=1;endArrow=classic;endFill=1;" parent="TXsu97STiCOG9BQ06nFb-1" source="OyFzKP3GuWBrdCjnjOIb-19" edge="1">
                    <mxGeometry relative="1" as="geometry">
                        <Array as="points">
                            <mxPoint x="185.72" y="152.44"/>
                            <mxPoint x="185.72" y="186.44"/>
                        </Array>
                        <mxPoint x="206.72" y="186.39999999999998" as="targetPoint"/>
                    </mxGeometry>
                </mxCell>
                <mxCell id="OyFzKP3GuWBrdCjnjOIb-19" value="app" style="outlineConnect=0;fontColor=#232F3E;gradientColor=none;fillColor=#232F3E;strokeColor=none;dashed=0;verticalLabelPosition=bottom;verticalAlign=top;align=center;html=1;fontSize=12;fontStyle=0;aspect=fixed;pointerEvents=1;shape=mxgraph.aws4.generic_database;" parent="TXsu97STiCOG9BQ06nFb-1" vertex="1">
                    <mxGeometry x="121" y="133.22000000000006" width="31.44" height="41.56" as="geometry"/>
                </mxCell>
                <mxCell id="CHHyB4FnQIO_N6Z5i6d3-1" value="" style="outlineConnect=0;fontColor=#232F3E;gradientColor=#4D72F3;gradientDirection=north;fillColor=#3334B9;strokeColor=#ffffff;dashed=0;verticalLabelPosition=bottom;verticalAlign=top;align=center;html=1;fontSize=12;fontStyle=0;aspect=fixed;shape=mxgraph.aws4.resourceIcon;resIcon=mxgraph.aws4.codepipeline;" parent="TXsu97STiCOG9BQ06nFb-1" vertex="1">
                    <mxGeometry x="206.72" y="173.44" width="46.56" height="46.56" as="geometry"/>
                </mxCell>
                <mxCell id="CHHyB4FnQIO_N6Z5i6d3-16" style="edgeStyle=orthogonalEdgeStyle;rounded=0;orthogonalLoop=1;jettySize=auto;html=1;startArrow=none;startFill=0;endArrow=classic;endFill=1;" parent="TXsu97STiCOG9BQ06nFb-1" target="CHHyB4FnQIO_N6Z5i6d3-3" edge="1">
                    <mxGeometry relative="1" as="geometry">
                        <mxPoint x="448.44000000000005" y="197" as="sourcePoint"/>
                        <Array as="points">
                            <mxPoint x="448.44000000000005" y="196"/>
                            <mxPoint x="448.44000000000005" y="197"/>
                        </Array>
                    </mxGeometry>
                </mxCell>
                <mxCell id="_MlhjIp3WgpPEU2tAH4I-1" style="edgeStyle=orthogonalEdgeStyle;rounded=0;orthogonalLoop=1;jettySize=auto;html=1;" parent="TXsu97STiCOG9BQ06nFb-1" source="CHHyB4FnQIO_N6Z5i6d3-3" target="_MlhjIp3WgpPEU2tAH4I-0" edge="1">
                    <mxGeometry relative="1" as="geometry">
                        <Array as="points">
                            <mxPoint x="578.44" y="197"/>
                            <mxPoint x="578.44" y="225"/>
                        </Array>
                    </mxGeometry>
                </mxCell>
                <mxCell id="CHHyB4FnQIO_N6Z5i6d3-3" value="" style="outlineConnect=0;fontColor=#232F3E;gradientColor=none;fillColor=#D05C17;strokeColor=none;dashed=0;verticalLabelPosition=bottom;verticalAlign=top;align=center;html=1;fontSize=12;fontStyle=0;aspect=fixed;pointerEvents=1;shape=mxgraph.aws4.ecs_service;" parent="TXsu97STiCOG9BQ06nFb-1" vertex="1">
                    <mxGeometry x="508.44000000000005" y="171.44" width="42.67" height="52" as="geometry"/>
                </mxCell>
                <mxCell id="euKfv0HWNEc7ueXWT4n4-6" value="" style="outlineConnect=0;fontColor=#232F3E;gradientColor=none;fillColor=#D05C17;strokeColor=none;dashed=0;verticalLabelPosition=bottom;verticalAlign=top;align=center;html=1;fontSize=12;fontStyle=0;aspect=fixed;pointerEvents=1;shape=mxgraph.aws4.container_registry_image;" parent="TXsu97STiCOG9BQ06nFb-1" vertex="1">
                    <mxGeometry x="448.44000000000005" y="107.44" width="18" height="18" as="geometry"/>
                </mxCell>
                <mxCell id="EoNvsJ9DB7w6ikuhf98V-2" value="" style="rounded=0;whiteSpace=wrap;html=1;strokeColor=#D86613;fillColor=none;" parent="TXsu97STiCOG9BQ06nFb-1" vertex="1">
                    <mxGeometry x="570.44" y="130" width="88" height="130" as="geometry"/>
                </mxCell>
                <mxCell id="EoNvsJ9DB7w6ikuhf98V-1" value="" style="outlineConnect=0;fontColor=#232F3E;gradientColor=#F78E04;gradientDirection=north;fillColor=#D05C17;strokeColor=#ffffff;dashed=0;verticalLabelPosition=bottom;verticalAlign=top;align=center;html=1;fontSize=12;fontStyle=0;aspect=fixed;shape=mxgraph.aws4.resourceIcon;resIcon=mxgraph.aws4.fargate;" parent="TXsu97STiCOG9BQ06nFb-1" vertex="1">
                    <mxGeometry x="570.44" y="130" width="24" height="24" as="geometry"/>
                </mxCell>
                <mxCell id="EoNvsJ9DB7w6ikuhf98V-3" style="edgeStyle=orthogonalEdgeStyle;rounded=0;orthogonalLoop=1;jettySize=auto;html=1;exitX=0.5;exitY=1;exitDx=0;exitDy=0;" parent="TXsu97STiCOG9BQ06nFb-1" source="EoNvsJ9DB7w6ikuhf98V-2" target="EoNvsJ9DB7w6ikuhf98V-2" edge="1">
                    <mxGeometry relative="1" as="geometry"/>
                </mxCell>
                <mxCell id="EoNvsJ9DB7w6ikuhf98V-4" value="" style="outlineConnect=0;fontColor=#232F3E;gradientColor=none;fillColor=#D05C17;strokeColor=none;dashed=0;verticalLabelPosition=bottom;verticalAlign=top;align=center;html=1;fontSize=12;fontStyle=0;aspect=fixed;pointerEvents=1;shape=mxgraph.aws4.container_1;opacity=50;" parent="TXsu97STiCOG9BQ06nFb-1" vertex="1">
                    <mxGeometry x="594.44" y="157.44" width="46.8" height="30" as="geometry"/>
                </mxCell>
                <mxCell id="_MlhjIp3WgpPEU2tAH4I-0" value="" style="outlineConnect=0;fontColor=#232F3E;gradientColor=none;fillColor=#D05C17;strokeColor=none;dashed=0;verticalLabelPosition=bottom;verticalAlign=top;align=center;html=1;fontSize=12;fontStyle=0;aspect=fixed;pointerEvents=1;shape=mxgraph.aws4.container_1;" parent="TXsu97STiCOG9BQ06nFb-1" vertex="1">
                    <mxGeometry x="594.44" y="207.44" width="46.8" height="30" as="geometry"/>
                </mxCell>
                <mxCell id="_MlhjIp3WgpPEU2tAH4I-2" style="edgeStyle=orthogonalEdgeStyle;rounded=0;orthogonalLoop=1;jettySize=auto;html=1;exitX=0.5;exitY=1;exitDx=0;exitDy=0;endArrow=openThin;endFill=0;" parent="TXsu97STiCOG9BQ06nFb-1" source="EoNvsJ9DB7w6ikuhf98V-2" target="EoNvsJ9DB7w6ikuhf98V-2" edge="1">
                    <mxGeometry relative="1" as="geometry"/>
                </mxCell>
                <mxCell id="0" value="" style="outlineConnect=0;fontColor=#232F3E;gradientColor=#4D72F3;gradientDirection=north;fillColor=#3334B9;strokeColor=#ffffff;dashed=0;verticalLabelPosition=bottom;verticalAlign=top;align=center;html=1;fontSize=12;fontStyle=0;aspect=fixed;shape=mxgraph.aws4.resourceIcon;resIcon=mxgraph.aws4.codecommit;" parent="TXsu97STiCOG9BQ06nFb-1" vertex="1">
                    <mxGeometry x="70" y="82.22" width="51" height="51" as="geometry"/>
                </mxCell>
                <mxCell id="3" style="edgeStyle=orthogonalEdgeStyle;rounded=0;orthogonalLoop=1;jettySize=auto;html=1;" parent="TXsu97STiCOG9BQ06nFb-1" source="1" target="mHzoulwclUu3AxQmjZOi-1" edge="1">
                    <mxGeometry relative="1" as="geometry">
                        <mxPoint x="320" y="150" as="targetPoint"/>
                        <Array as="points">
                            <mxPoint x="319.72" y="160"/>
                            <mxPoint x="367.72" y="160"/>
                        </Array>
                    </mxGeometry>
                </mxCell>
                <mxCell id="1" value="" style="outlineConnect=0;fontColor=#232F3E;gradientColor=#4D72F3;gradientDirection=north;fillColor=#3334B9;strokeColor=#ffffff;dashed=0;verticalLabelPosition=bottom;verticalAlign=top;align=center;html=1;fontSize=12;fontStyle=0;aspect=fixed;shape=mxgraph.aws4.resourceIcon;resIcon=mxgraph.aws4.codebuild;" parent="TXsu97STiCOG9BQ06nFb-1" vertex="1">
                    <mxGeometry x="296.72" y="173.44" width="46.56" height="46.56" as="geometry"/>
                </mxCell>
                <mxCell id="2" style="edgeStyle=orthogonalEdgeStyle;rounded=0;orthogonalLoop=1;jettySize=auto;html=1;endArrow=classic;endFill=1;" parent="TXsu97STiCOG9BQ06nFb-1" target="1" edge="1">
                    <mxGeometry relative="1" as="geometry">
                        <Array as="points">
                            <mxPoint x="256.72" y="199"/>
                        </Array>
                        <mxPoint x="256.72" y="199" as="sourcePoint"/>
                        <mxPoint x="291" y="221.45999999999998" as="targetPoint"/>
                    </mxGeometry>
                </mxCell>
                <mxCell id="4" value="" style="outlineConnect=0;fontColor=#232F3E;gradientColor=#4D72F3;gradientDirection=north;fillColor=#3334B9;strokeColor=#ffffff;dashed=0;verticalLabelPosition=bottom;verticalAlign=top;align=center;html=1;fontSize=12;fontStyle=0;aspect=fixed;shape=mxgraph.aws4.resourceIcon;resIcon=mxgraph.aws4.codedeploy;" parent="TXsu97STiCOG9BQ06nFb-1" vertex="1">
                    <mxGeometry x="413" y="175" width="45" height="45" as="geometry"/>
                </mxCell>
                <mxCell id="5" value="" style="rounded=0;whiteSpace=wrap;html=1;strokeColor=#D86613;fillColor=none;" parent="TXsu97STiCOG9BQ06nFb-1" vertex="1">
                    <mxGeometry x="488.44000000000005" y="394.21999999999997" width="190" height="180" as="geometry"/>
                </mxCell>
                <mxCell id="6" value="" style="outlineConnect=0;fontColor=#232F3E;gradientColor=#F78E04;gradientDirection=north;fillColor=#D05C17;strokeColor=#ffffff;dashed=0;verticalLabelPosition=bottom;verticalAlign=top;align=center;html=1;fontSize=12;fontStyle=0;aspect=fixed;shape=mxgraph.aws4.resourceIcon;resIcon=mxgraph.aws4.ecs;" parent="TXsu97STiCOG9BQ06nFb-1" vertex="1">
                    <mxGeometry x="488.44000000000005" y="394.21999999999997" width="24" height="24" as="geometry"/>
                </mxCell>
                <mxCell id="7" value="" style="rounded=0;whiteSpace=wrap;html=1;strokeColor=#D86613;fillColor=none;" parent="TXsu97STiCOG9BQ06nFb-1" vertex="1">
                    <mxGeometry x="96.72" y="394.21999999999997" width="80" height="180" as="geometry"/>
                </mxCell>
                <mxCell id="8" style="edgeStyle=orthogonalEdgeStyle;rounded=0;orthogonalLoop=1;jettySize=auto;html=1;startArrow=none;startFill=0;endArrow=classic;endFill=1;dashed=1;" parent="TXsu97STiCOG9BQ06nFb-1" source="9" target="29" edge="1">
                    <mxGeometry relative="1" as="geometry">
                        <Array as="points">
                            <mxPoint x="435" y="393.78"/>
                        </Array>
                        <mxPoint x="413" y="394.1593103448276" as="sourcePoint"/>
                    </mxGeometry>
                </mxCell>
                <mxCell id="9" value="" style="outlineConnect=0;fontColor=#232F3E;gradientColor=#F78E04;gradientDirection=north;fillColor=#D05C17;strokeColor=#ffffff;dashed=0;verticalLabelPosition=bottom;verticalAlign=top;align=center;html=1;fontSize=12;fontStyle=0;aspect=fixed;shape=mxgraph.aws4.resourceIcon;resIcon=mxgraph.aws4.ecr;" parent="TXsu97STiCOG9BQ06nFb-1" vertex="1">
                    <mxGeometry x="343.28" y="370.21999999999997" width="48" height="48" as="geometry"/>
                </mxCell>
                <mxCell id="10" style="edgeStyle=orthogonalEdgeStyle;rounded=0;orthogonalLoop=1;jettySize=auto;html=1;endArrow=classic;endFill=1;" parent="TXsu97STiCOG9BQ06nFb-1" source="11" edge="1">
                    <mxGeometry relative="1" as="geometry">
                        <Array as="points">
                            <mxPoint x="186.72" y="520.22"/>
                            <mxPoint x="186.72" y="484.21999999999997"/>
                        </Array>
                        <mxPoint x="206.72000000000003" y="484.17999999999984" as="targetPoint"/>
                    </mxGeometry>
                </mxCell>
                <mxCell id="11" value="ecs" style="outlineConnect=0;fontColor=#232F3E;gradientColor=none;fillColor=#232F3E;strokeColor=none;dashed=0;verticalLabelPosition=bottom;verticalAlign=top;align=center;html=1;fontSize=12;fontStyle=0;aspect=fixed;pointerEvents=1;shape=mxgraph.aws4.generic_database;" parent="TXsu97STiCOG9BQ06nFb-1" vertex="1">
                    <mxGeometry x="121" y="500.9999999999999" width="31.44" height="41.56" as="geometry"/>
                </mxCell>
                <mxCell id="12" style="edgeStyle=orthogonalEdgeStyle;rounded=0;orthogonalLoop=1;jettySize=auto;html=1;endArrow=classic;endFill=1;" parent="TXsu97STiCOG9BQ06nFb-1" source="13" edge="1">
                    <mxGeometry relative="1" as="geometry">
                        <Array as="points">
                            <mxPoint x="185.72" y="430.21999999999997"/>
                            <mxPoint x="185.72" y="464.21999999999997"/>
                        </Array>
                        <mxPoint x="206.72000000000003" y="464.17999999999984" as="targetPoint"/>
                    </mxGeometry>
                </mxCell>
                <mxCell id="13" value="app" style="outlineConnect=0;fontColor=#232F3E;gradientColor=none;fillColor=#232F3E;strokeColor=none;dashed=0;verticalLabelPosition=bottom;verticalAlign=top;align=center;html=1;fontSize=12;fontStyle=0;aspect=fixed;pointerEvents=1;shape=mxgraph.aws4.generic_database;" parent="TXsu97STiCOG9BQ06nFb-1" vertex="1">
                    <mxGeometry x="121" y="411" width="31.44" height="41.56" as="geometry"/>
                </mxCell>
                <mxCell id="14" value="" style="outlineConnect=0;fontColor=#232F3E;gradientColor=#4D72F3;gradientDirection=north;fillColor=#3334B9;strokeColor=#ffffff;dashed=0;verticalLabelPosition=bottom;verticalAlign=top;align=center;html=1;fontSize=12;fontStyle=0;aspect=fixed;shape=mxgraph.aws4.resourceIcon;resIcon=mxgraph.aws4.codepipeline;" parent="TXsu97STiCOG9BQ06nFb-1" vertex="1">
                    <mxGeometry x="206.72" y="451.21999999999997" width="46.56" height="46.56" as="geometry"/>
                </mxCell>
                <mxCell id="15" style="edgeStyle=orthogonalEdgeStyle;rounded=0;orthogonalLoop=1;jettySize=auto;html=1;startArrow=none;startFill=0;endArrow=classic;endFill=1;" parent="TXsu97STiCOG9BQ06nFb-1" target="17" edge="1">
                    <mxGeometry relative="1" as="geometry">
                        <mxPoint x="448.44000000000005" y="474.77999999999986" as="sourcePoint"/>
                        <Array as="points">
                            <mxPoint x="448.44000000000005" y="473.78"/>
                            <mxPoint x="448.44000000000005" y="474.78"/>
                        </Array>
                    </mxGeometry>
                </mxCell>
                <mxCell id="16" style="edgeStyle=orthogonalEdgeStyle;rounded=0;orthogonalLoop=1;jettySize=auto;html=1;" parent="TXsu97STiCOG9BQ06nFb-1" source="17" target="23" edge="1">
                    <mxGeometry relative="1" as="geometry">
                        <Array as="points">
                            <mxPoint x="578.44" y="474.78"/>
                            <mxPoint x="578.44" y="502.78"/>
                        </Array>
                    </mxGeometry>
                </mxCell>
                <mxCell id="17" value="" style="outlineConnect=0;fontColor=#232F3E;gradientColor=none;fillColor=#D05C17;strokeColor=none;dashed=0;verticalLabelPosition=bottom;verticalAlign=top;align=center;html=1;fontSize=12;fontStyle=0;aspect=fixed;pointerEvents=1;shape=mxgraph.aws4.ecs_service;" parent="TXsu97STiCOG9BQ06nFb-1" vertex="1">
                    <mxGeometry x="508.44000000000005" y="449.21999999999997" width="42.67" height="52" as="geometry"/>
                </mxCell>
                <mxCell id="18" value="" style="outlineConnect=0;fontColor=#232F3E;gradientColor=none;fillColor=#D05C17;strokeColor=none;dashed=0;verticalLabelPosition=bottom;verticalAlign=top;align=center;html=1;fontSize=12;fontStyle=0;aspect=fixed;pointerEvents=1;shape=mxgraph.aws4.container_registry_image;" parent="TXsu97STiCOG9BQ06nFb-1" vertex="1">
                    <mxGeometry x="448.44000000000005" y="385.21999999999997" width="18" height="18" as="geometry"/>
                </mxCell>
                <mxCell id="19" value="" style="rounded=0;whiteSpace=wrap;html=1;strokeColor=#D86613;fillColor=none;" parent="TXsu97STiCOG9BQ06nFb-1" vertex="1">
                    <mxGeometry x="570.44" y="407.78" width="88" height="130" as="geometry"/>
                </mxCell>
                <mxCell id="20" value="" style="outlineConnect=0;fontColor=#232F3E;gradientColor=#F78E04;gradientDirection=north;fillColor=#D05C17;strokeColor=#ffffff;dashed=0;verticalLabelPosition=bottom;verticalAlign=top;align=center;html=1;fontSize=12;fontStyle=0;aspect=fixed;shape=mxgraph.aws4.resourceIcon;resIcon=mxgraph.aws4.fargate;" parent="TXsu97STiCOG9BQ06nFb-1" vertex="1">
                    <mxGeometry x="570.44" y="407.78" width="24" height="24" as="geometry"/>
                </mxCell>
                <mxCell id="21" style="edgeStyle=orthogonalEdgeStyle;rounded=0;orthogonalLoop=1;jettySize=auto;html=1;exitX=0.5;exitY=1;exitDx=0;exitDy=0;" parent="TXsu97STiCOG9BQ06nFb-1" source="19" target="19" edge="1">
                    <mxGeometry relative="1" as="geometry"/>
                </mxCell>
                <mxCell id="22" value="" style="outlineConnect=0;fontColor=#232F3E;gradientColor=none;fillColor=#D05C17;strokeColor=none;dashed=0;verticalLabelPosition=bottom;verticalAlign=top;align=center;html=1;fontSize=12;fontStyle=0;aspect=fixed;pointerEvents=1;shape=mxgraph.aws4.container_1;opacity=50;" parent="TXsu97STiCOG9BQ06nFb-1" vertex="1">
                    <mxGeometry x="594.44" y="435.21999999999997" width="46.8" height="30" as="geometry"/>
                </mxCell>
                <mxCell id="23" value="" style="outlineConnect=0;fontColor=#232F3E;gradientColor=none;fillColor=#D05C17;strokeColor=none;dashed=0;verticalLabelPosition=bottom;verticalAlign=top;align=center;html=1;fontSize=12;fontStyle=0;aspect=fixed;pointerEvents=1;shape=mxgraph.aws4.container_1;" parent="TXsu97STiCOG9BQ06nFb-1" vertex="1">
                    <mxGeometry x="594.44" y="485.21999999999997" width="46.8" height="30" as="geometry"/>
                </mxCell>
                <mxCell id="24" style="edgeStyle=orthogonalEdgeStyle;rounded=0;orthogonalLoop=1;jettySize=auto;html=1;exitX=0.5;exitY=1;exitDx=0;exitDy=0;endArrow=openThin;endFill=0;" parent="TXsu97STiCOG9BQ06nFb-1" source="19" target="19" edge="1">
                    <mxGeometry relative="1" as="geometry"/>
                </mxCell>
                <mxCell id="25" value="" style="outlineConnect=0;fontColor=#232F3E;gradientColor=#4D72F3;gradientDirection=north;fillColor=#3334B9;strokeColor=#ffffff;dashed=0;verticalLabelPosition=bottom;verticalAlign=top;align=center;html=1;fontSize=12;fontStyle=0;aspect=fixed;shape=mxgraph.aws4.resourceIcon;resIcon=mxgraph.aws4.codecommit;" parent="TXsu97STiCOG9BQ06nFb-1" vertex="1">
                    <mxGeometry x="70" y="360" width="51" height="51" as="geometry"/>
                </mxCell>
                <mxCell id="26" style="edgeStyle=orthogonalEdgeStyle;rounded=0;orthogonalLoop=1;jettySize=auto;html=1;" parent="TXsu97STiCOG9BQ06nFb-1" source="27" target="9" edge="1">
                    <mxGeometry relative="1" as="geometry">
                        <mxPoint x="320" y="427.78" as="targetPoint"/>
                        <Array as="points">
                            <mxPoint x="319.72" y="437.78"/>
                            <mxPoint x="367.72" y="437.78"/>
                        </Array>
                    </mxGeometry>
                </mxCell>
                <mxCell id="27" value="" style="outlineConnect=0;fontColor=#232F3E;gradientColor=#4D72F3;gradientDirection=north;fillColor=#3334B9;strokeColor=#ffffff;dashed=0;verticalLabelPosition=bottom;verticalAlign=top;align=center;html=1;fontSize=12;fontStyle=0;aspect=fixed;shape=mxgraph.aws4.resourceIcon;resIcon=mxgraph.aws4.codebuild;" parent="TXsu97STiCOG9BQ06nFb-1" vertex="1">
                    <mxGeometry x="296.72" y="451.21999999999997" width="46.56" height="46.56" as="geometry"/>
                </mxCell>
                <mxCell id="28" style="edgeStyle=orthogonalEdgeStyle;rounded=0;orthogonalLoop=1;jettySize=auto;html=1;endArrow=classic;endFill=1;" parent="TXsu97STiCOG9BQ06nFb-1" target="27" edge="1">
                    <mxGeometry relative="1" as="geometry">
                        <Array as="points">
                            <mxPoint x="256.72" y="476.78"/>
                        </Array>
                        <mxPoint x="256.72" y="476.78" as="sourcePoint"/>
                        <mxPoint x="291" y="499.23999999999995" as="targetPoint"/>
                    </mxGeometry>
                </mxCell>
                <mxCell id="29" value="" style="outlineConnect=0;fontColor=#232F3E;gradientColor=#4D72F3;gradientDirection=north;fillColor=#3334B9;strokeColor=#ffffff;dashed=0;verticalLabelPosition=bottom;verticalAlign=top;align=center;html=1;fontSize=12;fontStyle=0;aspect=fixed;shape=mxgraph.aws4.resourceIcon;resIcon=mxgraph.aws4.codedeploy;" parent="TXsu97STiCOG9BQ06nFb-1" vertex="1">
                    <mxGeometry x="413" y="452.78" width="45" height="45" as="geometry"/>
                </mxCell>
                <mxCell id="30" value="" style="rounded=0;whiteSpace=wrap;html=1;fillColor=none;strokeWidth=3;strokeColor=#FF0000;" parent="TXsu97STiCOG9BQ06nFb-1" vertex="1">
                    <mxGeometry x="61.28" y="350" width="338.72" height="235" as="geometry"/>
                </mxCell>
                <mxCell id="31" value="" style="rounded=0;whiteSpace=wrap;html=1;strokeColor=#D86613;fillColor=none;" parent="TXsu97STiCOG9BQ06nFb-1" vertex="1">
                    <mxGeometry x="488.44000000000005" y="699.22" width="190" height="180" as="geometry"/>
                </mxCell>
                <mxCell id="32" value="" style="outlineConnect=0;fontColor=#232F3E;gradientColor=#F78E04;gradientDirection=north;fillColor=#D05C17;strokeColor=#ffffff;dashed=0;verticalLabelPosition=bottom;verticalAlign=top;align=center;html=1;fontSize=12;fontStyle=0;aspect=fixed;shape=mxgraph.aws4.resourceIcon;resIcon=mxgraph.aws4.ecs;" parent="TXsu97STiCOG9BQ06nFb-1" vertex="1">
                    <mxGeometry x="488.44000000000005" y="699.22" width="24" height="24" as="geometry"/>
                </mxCell>
                <mxCell id="33" value="" style="rounded=0;whiteSpace=wrap;html=1;strokeColor=#D86613;fillColor=none;" parent="TXsu97STiCOG9BQ06nFb-1" vertex="1">
                    <mxGeometry x="96.72" y="699.22" width="80" height="180" as="geometry"/>
                </mxCell>
                <mxCell id="34" style="edgeStyle=orthogonalEdgeStyle;rounded=0;orthogonalLoop=1;jettySize=auto;html=1;startArrow=none;startFill=0;endArrow=classic;endFill=1;dashed=1;" parent="TXsu97STiCOG9BQ06nFb-1" source="35" target="55" edge="1">
                    <mxGeometry relative="1" as="geometry">
                        <Array as="points">
                            <mxPoint x="435" y="698.78"/>
                        </Array>
                        <mxPoint x="413" y="699.1593103448276" as="sourcePoint"/>
                    </mxGeometry>
                </mxCell>
                <mxCell id="35" value="" style="outlineConnect=0;fontColor=#232F3E;gradientColor=#F78E04;gradientDirection=north;fillColor=#D05C17;strokeColor=#ffffff;dashed=0;verticalLabelPosition=bottom;verticalAlign=top;align=center;html=1;fontSize=12;fontStyle=0;aspect=fixed;shape=mxgraph.aws4.resourceIcon;resIcon=mxgraph.aws4.ecr;" parent="TXsu97STiCOG9BQ06nFb-1" vertex="1">
                    <mxGeometry x="343.28" y="675.22" width="48" height="48" as="geometry"/>
                </mxCell>
                <mxCell id="36" style="edgeStyle=orthogonalEdgeStyle;rounded=0;orthogonalLoop=1;jettySize=auto;html=1;endArrow=classic;endFill=1;" parent="TXsu97STiCOG9BQ06nFb-1" source="37" edge="1">
                    <mxGeometry relative="1" as="geometry">
                        <Array as="points">
                            <mxPoint x="186.72" y="825.22"/>
                            <mxPoint x="186.72" y="789.22"/>
                        </Array>
                        <mxPoint x="206.72000000000025" y="789.1799999999998" as="targetPoint"/>
                    </mxGeometry>
                </mxCell>
                <mxCell id="37" value="ecs" style="outlineConnect=0;fontColor=#232F3E;gradientColor=none;fillColor=#232F3E;strokeColor=none;dashed=0;verticalLabelPosition=bottom;verticalAlign=top;align=center;html=1;fontSize=12;fontStyle=0;aspect=fixed;pointerEvents=1;shape=mxgraph.aws4.generic_database;" parent="TXsu97STiCOG9BQ06nFb-1" vertex="1">
                    <mxGeometry x="121" y="805.9999999999999" width="31.44" height="41.56" as="geometry"/>
                </mxCell>
                <mxCell id="38" style="edgeStyle=orthogonalEdgeStyle;rounded=0;orthogonalLoop=1;jettySize=auto;html=1;endArrow=classic;endFill=1;" parent="TXsu97STiCOG9BQ06nFb-1" source="39" edge="1">
                    <mxGeometry relative="1" as="geometry">
                        <Array as="points">
                            <mxPoint x="185.72" y="735.22"/>
                            <mxPoint x="185.72" y="769.22"/>
                        </Array>
                        <mxPoint x="206.72000000000025" y="769.1799999999998" as="targetPoint"/>
                    </mxGeometry>
                </mxCell>
                <mxCell id="39" value="app" style="outlineConnect=0;fontColor=#232F3E;gradientColor=none;fillColor=#232F3E;strokeColor=none;dashed=0;verticalLabelPosition=bottom;verticalAlign=top;align=center;html=1;fontSize=12;fontStyle=0;aspect=fixed;pointerEvents=1;shape=mxgraph.aws4.generic_database;" parent="TXsu97STiCOG9BQ06nFb-1" vertex="1">
                    <mxGeometry x="121" y="716" width="31.44" height="41.56" as="geometry"/>
                </mxCell>
                <mxCell id="40" value="" style="outlineConnect=0;fontColor=#232F3E;gradientColor=#4D72F3;gradientDirection=north;fillColor=#3334B9;strokeColor=#ffffff;dashed=0;verticalLabelPosition=bottom;verticalAlign=top;align=center;html=1;fontSize=12;fontStyle=0;aspect=fixed;shape=mxgraph.aws4.resourceIcon;resIcon=mxgraph.aws4.codepipeline;" parent="TXsu97STiCOG9BQ06nFb-1" vertex="1">
                    <mxGeometry x="206.72" y="756.22" width="46.56" height="46.56" as="geometry"/>
                </mxCell>
                <mxCell id="41" style="edgeStyle=orthogonalEdgeStyle;rounded=0;orthogonalLoop=1;jettySize=auto;html=1;startArrow=none;startFill=0;endArrow=classic;endFill=1;" parent="TXsu97STiCOG9BQ06nFb-1" target="43" edge="1">
                    <mxGeometry relative="1" as="geometry">
                        <mxPoint x="448.44000000000005" y="779.7799999999997" as="sourcePoint"/>
                        <Array as="points">
                            <mxPoint x="448.44000000000005" y="778.78"/>
                            <mxPoint x="448.44000000000005" y="779.78"/>
                        </Array>
                    </mxGeometry>
                </mxCell>
                <mxCell id="42" style="edgeStyle=orthogonalEdgeStyle;rounded=0;orthogonalLoop=1;jettySize=auto;html=1;" parent="TXsu97STiCOG9BQ06nFb-1" source="43" target="49" edge="1">
                    <mxGeometry relative="1" as="geometry">
                        <Array as="points">
                            <mxPoint x="578.44" y="779.78"/>
                            <mxPoint x="578.44" y="807.78"/>
                        </Array>
                    </mxGeometry>
                </mxCell>
                <mxCell id="43" value="" style="outlineConnect=0;fontColor=#232F3E;gradientColor=none;fillColor=#D05C17;strokeColor=none;dashed=0;verticalLabelPosition=bottom;verticalAlign=top;align=center;html=1;fontSize=12;fontStyle=0;aspect=fixed;pointerEvents=1;shape=mxgraph.aws4.ecs_service;" parent="TXsu97STiCOG9BQ06nFb-1" vertex="1">
                    <mxGeometry x="508.44000000000005" y="754.22" width="42.67" height="52" as="geometry"/>
                </mxCell>
                <mxCell id="44" value="" style="outlineConnect=0;fontColor=#232F3E;gradientColor=none;fillColor=#D05C17;strokeColor=none;dashed=0;verticalLabelPosition=bottom;verticalAlign=top;align=center;html=1;fontSize=12;fontStyle=0;aspect=fixed;pointerEvents=1;shape=mxgraph.aws4.container_registry_image;" parent="TXsu97STiCOG9BQ06nFb-1" vertex="1">
                    <mxGeometry x="448.44000000000005" y="690.22" width="18" height="18" as="geometry"/>
                </mxCell>
                <mxCell id="45" value="" style="rounded=0;whiteSpace=wrap;html=1;strokeColor=#D86613;fillColor=none;" parent="TXsu97STiCOG9BQ06nFb-1" vertex="1">
                    <mxGeometry x="570.44" y="712.78" width="88" height="130" as="geometry"/>
                </mxCell>
                <mxCell id="46" value="" style="outlineConnect=0;fontColor=#232F3E;gradientColor=#F78E04;gradientDirection=north;fillColor=#D05C17;strokeColor=#ffffff;dashed=0;verticalLabelPosition=bottom;verticalAlign=top;align=center;html=1;fontSize=12;fontStyle=0;aspect=fixed;shape=mxgraph.aws4.resourceIcon;resIcon=mxgraph.aws4.fargate;" parent="TXsu97STiCOG9BQ06nFb-1" vertex="1">
                    <mxGeometry x="570.44" y="712.78" width="24" height="24" as="geometry"/>
                </mxCell>
                <mxCell id="47" style="edgeStyle=orthogonalEdgeStyle;rounded=0;orthogonalLoop=1;jettySize=auto;html=1;exitX=0.5;exitY=1;exitDx=0;exitDy=0;" parent="TXsu97STiCOG9BQ06nFb-1" source="45" target="45" edge="1">
                    <mxGeometry relative="1" as="geometry"/>
                </mxCell>
                <mxCell id="48" value="" style="outlineConnect=0;fontColor=#232F3E;gradientColor=none;fillColor=#D05C17;strokeColor=none;dashed=0;verticalLabelPosition=bottom;verticalAlign=top;align=center;html=1;fontSize=12;fontStyle=0;aspect=fixed;pointerEvents=1;shape=mxgraph.aws4.container_1;opacity=50;" parent="TXsu97STiCOG9BQ06nFb-1" vertex="1">
                    <mxGeometry x="594.44" y="740.22" width="46.8" height="30" as="geometry"/>
                </mxCell>
                <mxCell id="49" value="" style="outlineConnect=0;fontColor=#232F3E;gradientColor=none;fillColor=#D05C17;strokeColor=none;dashed=0;verticalLabelPosition=bottom;verticalAlign=top;align=center;html=1;fontSize=12;fontStyle=0;aspect=fixed;pointerEvents=1;shape=mxgraph.aws4.container_1;" parent="TXsu97STiCOG9BQ06nFb-1" vertex="1">
                    <mxGeometry x="594.44" y="790.22" width="46.8" height="30" as="geometry"/>
                </mxCell>
                <mxCell id="50" style="edgeStyle=orthogonalEdgeStyle;rounded=0;orthogonalLoop=1;jettySize=auto;html=1;exitX=0.5;exitY=1;exitDx=0;exitDy=0;endArrow=openThin;endFill=0;" parent="TXsu97STiCOG9BQ06nFb-1" source="45" target="45" edge="1">
                    <mxGeometry relative="1" as="geometry"/>
                </mxCell>
                <mxCell id="51" value="" style="outlineConnect=0;fontColor=#232F3E;gradientColor=#4D72F3;gradientDirection=north;fillColor=#3334B9;strokeColor=#ffffff;dashed=0;verticalLabelPosition=bottom;verticalAlign=top;align=center;html=1;fontSize=12;fontStyle=0;aspect=fixed;shape=mxgraph.aws4.resourceIcon;resIcon=mxgraph.aws4.codecommit;" parent="TXsu97STiCOG9BQ06nFb-1" vertex="1">
                    <mxGeometry x="70" y="665" width="51" height="51" as="geometry"/>
                </mxCell>
                <mxCell id="52" style="edgeStyle=orthogonalEdgeStyle;rounded=0;orthogonalLoop=1;jettySize=auto;html=1;" parent="TXsu97STiCOG9BQ06nFb-1" source="53" target="35" edge="1">
                    <mxGeometry relative="1" as="geometry">
                        <mxPoint x="320" y="732.78" as="targetPoint"/>
                        <Array as="points">
                            <mxPoint x="319.72" y="742.78"/>
                            <mxPoint x="367.72" y="742.78"/>
                        </Array>
                    </mxGeometry>
                </mxCell>
                <mxCell id="53" value="" style="outlineConnect=0;fontColor=#232F3E;gradientColor=#4D72F3;gradientDirection=north;fillColor=#3334B9;strokeColor=#ffffff;dashed=0;verticalLabelPosition=bottom;verticalAlign=top;align=center;html=1;fontSize=12;fontStyle=0;aspect=fixed;shape=mxgraph.aws4.resourceIcon;resIcon=mxgraph.aws4.codebuild;" parent="TXsu97STiCOG9BQ06nFb-1" vertex="1">
                    <mxGeometry x="296.72" y="756.22" width="46.56" height="46.56" as="geometry"/>
                </mxCell>
                <mxCell id="54" style="edgeStyle=orthogonalEdgeStyle;rounded=0;orthogonalLoop=1;jettySize=auto;html=1;endArrow=classic;endFill=1;" parent="TXsu97STiCOG9BQ06nFb-1" target="53" edge="1">
                    <mxGeometry relative="1" as="geometry">
                        <Array as="points">
                            <mxPoint x="256.72" y="781.78"/>
                        </Array>
                        <mxPoint x="256.72000000000025" y="781.78" as="sourcePoint"/>
                        <mxPoint x="291" y="804.24" as="targetPoint"/>
                    </mxGeometry>
                </mxCell>
                <mxCell id="55" value="" style="outlineConnect=0;fontColor=#232F3E;gradientColor=#4D72F3;gradientDirection=north;fillColor=#3334B9;strokeColor=#ffffff;dashed=0;verticalLabelPosition=bottom;verticalAlign=top;align=center;html=1;fontSize=12;fontStyle=0;aspect=fixed;shape=mxgraph.aws4.resourceIcon;resIcon=mxgraph.aws4.codedeploy;" parent="TXsu97STiCOG9BQ06nFb-1" vertex="1">
                    <mxGeometry x="413" y="757.78" width="45" height="45" as="geometry"/>
                </mxCell>
                <mxCell id="56" value="" style="rounded=0;whiteSpace=wrap;html=1;fillColor=none;strokeWidth=3;strokeColor=#FF0000;" parent="TXsu97STiCOG9BQ06nFb-1" vertex="1">
                    <mxGeometry x="400" y="660" width="300" height="230" as="geometry"/>
                </mxCell>
            </root>
        </mxGraphModel>
    </diagram>
</mxfile>